<svg width="25" height="25" viewBox="0 0 25 25" fill="none" xmlns="http://www.w3.org/2000/svg">
<path d="M8.85217 24.0876H15.5826C21.1913 24.0876 23.4348 21.8441 23.4348 16.2354V9.50495C23.4348 3.89625 21.1913 1.65277 15.5826 1.65277H8.85217C3.24348 1.65277 1 3.89625 1 9.50495V16.2354C1 21.8441 3.24348 24.0876 8.85217 24.0876Z" stroke="#CACACA" stroke-width="1.68261" stroke-linecap="round" stroke-linejoin="round"/>
<path d="M7.14016 8.00988C7.14016 7.59349 7.30557 7.19415 7.6 6.89972C7.89443 6.60529 8.29377 6.43988 8.71016 6.43988H14.2052C14.6215 6.43988 15.0209 6.60529 15.3153 6.89972C15.6097 7.19415 15.7752 7.59349 15.7752 8.00988V13.5049H18.1302V15.0749C18.1302 15.6995 17.882 16.2985 17.4404 16.7401C16.9987 17.1818 16.3997 17.4299 15.7752 17.4299H12.6352V15.4674C12.6352 14.9469 12.4284 14.4477 12.0604 14.0797C11.6923 13.7116 11.1931 13.5049 10.6727 13.5049H7.14016V8.00988ZM15.7752 16.6449C16.1915 16.6449 16.5909 16.4795 16.8853 16.185C17.1797 15.8906 17.3452 15.4913 17.3452 15.0749V14.2899H15.7752V16.6449ZM9.88766 8.79488C9.78356 8.79488 9.68373 8.83623 9.61012 8.90984C9.53651 8.98345 9.49516 9.08328 9.49516 9.18738C9.49516 9.29148 9.53651 9.39131 9.61012 9.46492C9.68373 9.53853 9.78356 9.57988 9.88766 9.57988H13.0277C13.1318 9.57988 13.2316 9.53853 13.3052 9.46492C13.3788 9.39131 13.4202 9.29148 13.4202 9.18738C13.4202 9.08328 13.3788 8.98345 13.3052 8.90984C13.2316 8.83623 13.1318 8.79488 13.0277 8.79488H9.88766ZM9.88766 10.3649C9.78356 10.3649 9.68373 10.4062 9.61012 10.4798C9.53651 10.5534 9.49516 10.6533 9.49516 10.7574C9.49516 10.8615 9.53651 10.9613 9.61012 11.0349C9.68373 11.1085 9.78356 11.1499 9.88766 11.1499H13.0277C13.1318 11.1499 13.2316 11.1085 13.3052 11.0349C13.3788 10.9613 13.4202 10.8615 13.4202 10.7574C13.4202 10.6533 13.3788 10.5534 13.3052 10.4798C13.2316 10.4062 13.1318 10.3649 13.0277 10.3649H9.88766ZM10.6727 14.2899C10.9849 14.2899 11.2845 14.4139 11.5053 14.6348C11.7261 14.8556 11.8502 15.1551 11.8502 15.4674V17.8224C11.8502 18.1347 11.7261 18.4342 11.5053 18.655C11.2845 18.8758 10.9849 18.9999 10.6727 18.9999H5.96266C5.65036 18.9999 5.35086 18.8758 5.13004 18.655C4.90921 18.4342 4.78516 18.1347 4.78516 17.8224V15.4674C4.78516 15.1551 4.90921 14.8556 5.13004 14.6348C5.35086 14.4139 5.65036 14.2899 5.96266 14.2899H10.6727ZM11.0652 17.8224V17.0374C10.7529 17.0374 10.4534 17.1614 10.2325 17.3823C10.0117 17.6031 9.88766 17.9026 9.88766 18.2149H10.6727C10.6727 18.1108 10.714 18.0109 10.7876 17.9373C10.8612 17.8637 10.9611 17.8224 11.0652 17.8224ZM11.0652 15.4674C10.9611 15.4674 10.8612 15.426 10.7876 15.3524C10.714 15.2788 10.6727 15.179 10.6727 15.0749H9.88766C9.88766 15.3872 10.0117 15.6867 10.2325 15.9075C10.4534 16.1283 10.7529 16.2524 11.0652 16.2524V15.4674ZM5.96266 15.0749C5.96266 15.179 5.9213 15.2788 5.8477 15.3524C5.77409 15.426 5.67425 15.4674 5.57016 15.4674V16.2524C5.88245 16.2524 6.18195 16.1283 6.40277 15.9075C6.6236 15.6867 6.74766 15.3872 6.74766 15.0749H5.96266ZM5.57016 17.8224C5.67425 17.8224 5.77409 17.8637 5.8477 17.9373C5.9213 18.0109 5.96266 18.1108 5.96266 18.2149H6.74766C6.74766 17.9026 6.6236 17.6031 6.40277 17.3823C6.18195 17.1614 5.88245 17.0374 5.57016 17.0374V17.8224ZM8.31766 15.4674C8.00536 15.4674 7.70586 15.5914 7.48504 15.8123C7.26421 16.0331 7.14016 16.3326 7.14016 16.6449C7.14016 16.9572 7.26421 17.2567 7.48504 17.4775C7.70586 17.6983 8.00536 17.8224 8.31766 17.8224C8.62995 17.8224 8.92945 17.6983 9.15027 17.4775C9.3711 17.2567 9.49516 16.9572 9.49516 16.6449C9.49516 16.3326 9.3711 16.0331 9.15027 15.8123C8.92945 15.5914 8.62995 15.4674 8.31766 15.4674Z" fill="#CACACA"/>
</svg>
