<?xml version="1.0" encoding="UTF-8" standalone="no"?>
<svg
   inkscape:version="1.1.1 (3bf5ae0d25, 2021-09-20)"
   sodipodi:docname="odon150.svg"
   viewBox="0 0 150.87399 72.373824"
   height="72.373825"
   width="150.87399"
   xml:space="preserve"
   id="svg2"
   version="1.1"
   xmlns:inkscape="http://www.inkscape.org/namespaces/inkscape"
   xmlns:sodipodi="http://sodipodi.sourceforge.net/DTD/sodipodi-0.dtd"
   xmlns="http://www.w3.org/2000/svg"
   xmlns:svg="http://www.w3.org/2000/svg"
   xmlns:rdf="http://www.w3.org/1999/02/22-rdf-syntax-ns#"
   xmlns:cc="http://creativecommons.org/ns#"
   xmlns:dc="http://purl.org/dc/elements/1.1/"><metadata
     id="metadata8"><rdf:RDF><cc:Work
         rdf:about=""><dc:format>image/svg+xml</dc:format><dc:type
           rdf:resource="http://purl.org/dc/dcmitype/StillImage" /></cc:Work></rdf:RDF></metadata><defs
     id="defs6"><clipPath
       id="clipPath18"
       clipPathUnits="userSpaceOnUse"><path
         id="path16"
         d="M 0,595.275 H 841.89 V 0 H 0 Z" /></clipPath></defs><sodipodi:namedview
     inkscape:current-layer="g10"
     inkscape:window-maximized="1"
     inkscape:window-y="32"
     inkscape:window-x="0"
     inkscape:cy="21.975408"
     inkscape:cx="55.261687"
     inkscape:zoom="1.547184"
     showgrid="false"
     id="namedview4"
     inkscape:window-height="1011"
     inkscape:window-width="1920"
     inkscape:pageshadow="2"
     inkscape:pageopacity="0"
     guidetolerance="10"
     gridtolerance="10"
     objecttolerance="10"
     borderopacity="1"
     bordercolor="#666666"
     pagecolor="#ffffff"
     inkscape:pagecheckerboard="0" /><g
     transform="matrix(1.3333333,0,0,-1.3333333,-182.01719,589.97626)"
     inkscape:label="Logo Odontalia27"
     inkscape:groupmode="layer"
     id="g10"><g
       transform="matrix(0.1972022,0,0,0.19745839,106.9497,354.10121)"
       id="g12"
       style="stroke-width:1.04517"><g
         clip-path="url(#clipPath18)"
         id="g14"
         style="stroke-width:1.04517"><g
           transform="translate(149.9131,220.2383)"
           id="g20"
           style="stroke-width:1.04517"><path
             id="path22"
             style="fill:#31bcdb;fill-opacity:1;fill-rule:nonzero;stroke:none;stroke-width:1.04517"
             d="m 0,0 c 0,4.266 0.548,8.369 1.646,12.33 1.096,3.981 2.64,7.678 4.651,11.11 2.011,3.433 4.428,6.561 7.251,9.425 2.824,2.844 5.952,5.261 9.405,7.272 3.453,2.011 7.15,3.575 11.09,4.692 3.941,1.117 8.064,1.687 12.371,1.687 4.204,0 8.307,-0.57 12.268,-1.687 3.961,-1.117 7.638,-2.681 11.07,-4.692 3.433,-2.011 6.561,-4.428 9.385,-7.251 2.823,-2.824 5.24,-5.972 7.251,-9.425 2.011,-3.453 3.575,-7.171 4.692,-11.151 1.117,-3.982 1.666,-8.105 1.666,-12.371 0,-4.286 -0.549,-8.388 -1.666,-12.33 -1.117,-3.94 -2.681,-7.636 -4.692,-11.07 -2.011,-3.433 -4.428,-6.54 -7.251,-9.363 -2.824,-2.804 -5.952,-5.2 -9.385,-7.211 -3.432,-2.011 -7.109,-3.575 -11.07,-4.672 -3.961,-1.097 -8.084,-1.646 -12.329,-1.646 -4.266,0 -8.389,0.549 -12.35,1.646 -3.941,1.097 -7.638,2.661 -11.07,4.672 -3.433,2.011 -6.561,4.428 -9.385,7.252 -2.823,2.823 -5.24,5.951 -7.251,9.384 -2.011,3.432 -3.555,7.129 -4.651,11.07 C 0.548,-8.389 0,-4.285 0,0 m 7.069,0.081 c 0,-5.443 1.036,-10.542 3.087,-15.295 2.052,-4.753 4.855,-8.896 8.409,-12.451 3.555,-3.555 7.719,-6.358 12.493,-8.409 4.793,-2.052 9.892,-3.088 15.356,-3.088 3.615,0 7.088,0.468 10.42,1.401 3.331,0.935 6.459,2.255 9.364,3.961 2.905,1.707 5.545,3.758 7.962,6.135 2.397,2.376 4.449,5.017 6.155,7.922 1.706,2.904 3.026,6.032 3.961,9.384 0.934,3.351 1.401,6.825 1.401,10.44 0,5.403 -1.035,10.482 -3.108,15.234 -2.071,4.753 -4.895,8.917 -8.449,12.472 -3.555,3.555 -7.719,6.359 -12.472,8.43 -4.753,2.072 -9.831,3.108 -15.234,3.108 -3.636,0 -7.11,-0.468 -10.461,-1.402 -3.352,-0.934 -6.5,-2.255 -9.425,-3.961 C 23.603,32.256 20.942,30.204 18.565,27.808 16.189,25.411 14.138,22.771 12.431,19.865 10.725,16.961 9.405,13.833 8.47,10.481 7.536,7.13 7.069,3.656 7.069,0.081" /></g><g
           transform="translate(317.7886,175.6611)"
           id="g24"
           style="stroke-width:1.04517"><path
             id="path26"
             style="fill:#31bcdb;fill-opacity:1;fill-rule:nonzero;stroke:none;stroke-width:1.04517"
             d="m 0,0 c 0,-1.09 -0.544,-1.635 -1.635,-1.635 h -2.656 c -1.089,0 -1.635,0.545 -1.635,1.635 v 8.548 l -0.204,3.78 C -6.811,11.204 -7.543,10.046 -8.326,8.888 -9.11,7.73 -9.944,6.742 -10.83,5.926 c -3.03,-2.862 -6.436,-5.058 -10.233,-6.59 -3.797,-1.532 -7.816,-2.299 -12.073,-2.299 -3.048,0 -6.01,0.408 -8.854,1.209 -2.844,0.8 -5.5,1.924 -7.986,3.389 -2.486,1.464 -4.751,3.218 -6.794,5.261 -2.026,2.06 -3.78,4.308 -5.245,6.777 -1.464,2.469 -2.605,5.142 -3.405,8.003 -0.801,2.86 -1.192,5.823 -1.192,8.905 0,3.065 0.391,6.028 1.192,8.889 0.8,2.86 1.941,5.534 3.405,8.02 1.465,2.486 3.219,4.75 5.245,6.811 2.043,2.044 4.308,3.798 6.794,5.262 2.486,1.464 5.142,2.587 7.986,3.388 2.844,0.8 5.806,1.209 8.854,1.209 2.146,0 4.24,-0.222 6.283,-0.664 2.044,-0.443 4.019,-1.073 5.926,-1.873 1.907,-0.801 3.712,-1.754 5.432,-2.878 1.72,-1.141 3.303,-2.384 4.768,-3.746 0.919,-0.953 1.72,-1.907 2.401,-2.878 0.68,-0.971 1.481,-2.094 2.4,-3.353 V 81.63 c 0,0.238 0.086,0.443 0.256,0.613 0.17,0.171 0.391,0.256 0.664,0.256 l 3.627,0.051 C -0.459,82.55 0,82.09 0,81.171 Z m -60.278,30.599 c 0,-3.746 0.698,-7.288 2.111,-10.625 1.414,-3.355 3.338,-6.301 5.79,-8.822 2.452,-2.536 5.313,-4.546 8.599,-6.044 3.269,-1.499 6.777,-2.248 10.523,-2.248 3.78,0 7.339,0.715 10.711,2.162 3.371,1.449 6.316,3.423 8.837,5.926 2.537,2.487 4.529,5.433 5.994,8.787 1.464,3.371 2.196,6.947 2.196,10.761 0,3.746 -0.715,7.306 -2.146,10.677 -1.43,3.389 -3.371,6.351 -5.857,8.905 -2.486,2.555 -5.397,4.58 -8.718,6.096 -3.338,1.515 -6.879,2.264 -10.659,2.264 -3.781,0 -7.322,-0.732 -10.66,-2.213 -3.32,-1.481 -6.232,-3.491 -8.684,-6.044 -2.469,-2.555 -4.427,-5.5 -5.875,-8.872 -1.447,-3.371 -2.162,-6.93 -2.162,-10.71" /></g><g
           transform="translate(330.0996,206.2598)"
           id="g28"
           style="stroke-width:1.04517"><path
             id="path30"
             style="fill:#2dbcdb;fill-opacity:1;fill-rule:nonzero;stroke:none;stroke-width:1.04517"
             d="m 0,0 c 0,3.064 0.409,6.027 1.209,8.889 0.8,2.86 1.924,5.533 3.389,8.019 1.464,2.487 3.218,4.751 5.261,6.794 2.06,2.044 4.325,3.798 6.811,5.262 2.486,1.465 5.159,2.605 8.003,3.405 2.844,0.801 5.789,1.193 8.871,1.193 3.065,0 6.011,-0.392 8.855,-1.193 2.861,-0.8 5.517,-1.94 8.003,-3.405 2.486,-1.464 4.767,-3.218 6.828,-5.262 2.06,-2.043 3.831,-4.307 5.295,-6.794 1.465,-2.486 2.589,-5.159 3.389,-8.019 0.8,-2.862 1.209,-5.825 1.209,-8.889 0,-3.065 -0.409,-6.028 -1.209,-8.889 -0.8,-2.86 -1.924,-5.534 -3.389,-8.019 -1.464,-2.487 -3.235,-4.751 -5.295,-6.795 -2.061,-2.043 -4.342,-3.797 -6.828,-5.261 -2.486,-1.465 -5.142,-2.589 -8.003,-3.389 -2.844,-0.8 -5.79,-1.209 -8.855,-1.209 -3.082,0 -6.027,0.409 -8.871,1.209 -2.844,0.8 -5.517,1.924 -8.003,3.389 -2.486,1.464 -4.751,3.218 -6.811,5.261 -2.043,2.044 -3.797,4.308 -5.261,6.795 -1.465,2.485 -2.589,5.159 -3.389,8.019 C 0.409,-6.028 0,-3.065 0,0 m 6.13,0 c 0,-2.486 0.323,-4.887 0.971,-7.22 0.647,-2.316 1.566,-4.512 2.741,-6.572 1.175,-2.061 2.588,-3.951 4.24,-5.654 1.651,-1.72 3.49,-3.2 5.517,-4.41 2.026,-1.226 4.189,-2.179 6.487,-2.861 2.299,-0.68 4.7,-1.021 7.22,-1.021 3.78,0 7.356,0.715 10.711,2.162 3.354,1.448 6.283,3.423 8.803,5.926 2.52,2.486 4.512,5.415 5.976,8.769 1.465,3.337 2.197,6.931 2.197,10.778 0,3.747 -0.715,7.306 -2.145,10.677 -1.431,3.389 -3.372,6.352 -5.841,8.905 -2.469,2.555 -5.364,4.581 -8.684,6.096 -3.321,1.516 -6.879,2.265 -10.659,2.265 -3.78,0 -7.339,-0.733 -10.694,-2.214 -3.354,-1.48 -6.283,-3.49 -8.769,-6.044 C 11.715,17.027 9.757,14.082 8.31,10.71 6.862,7.339 6.13,3.78 6.13,0" /></g><g
           transform="translate(410.8105,236.7051)"
           id="g32"
           style="stroke-width:1.04517"><path
             id="path34"
             style="fill:#2dbcdb;fill-opacity:1;fill-rule:nonzero;stroke:none;stroke-width:1.04517"
             d="M 0,0 C 0,0.613 0.187,1.09 0.545,1.413 0.903,1.736 1.362,1.89 1.941,1.89 H 4.036 C 4.649,1.89 5.125,1.72 5.449,1.362 5.772,1.005 5.926,0.545 5.926,0 v -7.51 c 1.464,2.214 3.116,4.036 4.955,5.449 1.839,1.414 3.729,2.521 5.67,3.321 1.941,0.801 3.865,1.345 5.756,1.635 1.889,0.29 3.627,0.425 5.227,0.425 3.916,0 7.492,-0.715 10.728,-2.145 3.234,-1.431 5.993,-3.389 8.275,-5.874 2.281,-2.487 4.053,-5.381 5.313,-8.685 1.259,-3.303 1.889,-6.828 1.889,-10.574 v -36.474 c 0,-0.749 -0.186,-1.31 -0.561,-1.685 -0.375,-0.374 -0.868,-0.562 -1.482,-0.562 h -1.89 c -0.784,0 -1.311,0.17 -1.583,0.511 -0.273,0.341 -0.41,0.902 -0.41,1.686 v 36.643 c -0.101,2.656 -0.629,5.245 -1.583,7.782 -0.953,2.537 -2.298,4.785 -4.036,6.76 -1.736,1.975 -3.865,3.576 -6.384,4.785 -2.521,1.209 -5.398,1.805 -8.633,1.805 -2.623,0 -5.177,-0.478 -7.68,-1.447 -2.503,-0.971 -4.751,-2.333 -6.726,-4.087 -1.975,-1.754 -3.576,-3.865 -4.819,-6.301 -1.243,-2.452 -1.924,-5.159 -2.026,-8.122 v -38.38 c 0,-1.09 -0.511,-1.635 -1.516,-1.635 H 1.72 c -1.073,0 -1.617,0.545 -1.617,1.635 v 14.149 C 0.034,-46.792 0,-46.604 0,-46.332 Z" /></g><g
           transform="translate(499.4912,176.4268)"
           id="g36"
           style="stroke-width:1.04517"><path
             id="path38"
             style="fill:#183669;fill-opacity:1;fill-rule:nonzero;stroke:none;stroke-width:1.04517"
             d="m 0,0 c 0,0 0.017,-0.067 0.034,-0.221 0.017,-0.153 0.017,-0.341 0.017,-0.545 v -0.613 -0.46 c 0,-0.307 -0.119,-0.545 -0.358,-0.732 -0.238,-0.187 -0.528,-0.34 -0.868,-0.443 -0.341,-0.101 -0.681,-0.153 -1.039,-0.17 -0.357,-0.017 -0.647,-0.034 -0.851,-0.034 -1.839,0 -3.576,0.239 -5.228,0.698 -1.651,0.46 -3.116,1.192 -4.376,2.214 -1.26,1.022 -2.248,2.35 -2.979,3.985 -0.733,1.634 -1.108,3.627 -1.108,5.942 v 47.234 h -8.837 c -0.579,0 -1.005,0.121 -1.277,0.358 -0.273,0.238 -0.408,0.665 -0.408,1.243 v 2.418 c 0,0.579 0.135,0.988 0.408,1.192 0.272,0.205 0.698,0.307 1.277,0.307 h 8.837 v 16.091 c 0,0.341 0.137,0.613 0.409,0.817 0.136,0.102 0.289,0.188 0.46,0.256 -0.034,0 0.085,0.067 0.358,0.187 0.272,0.119 0.595,0.239 0.97,0.375 0.374,0.135 0.766,0.272 1.158,0.391 0.391,0.119 0.681,0.17 0.885,0.17 0.681,0 1.141,-0.17 1.363,-0.511 0.221,-0.34 0.323,-0.799 0.323,-1.378 V 62.373 H 0.612 c 1.124,0 1.686,-0.545 1.686,-1.652 v -2.06 c 0,-1.21 -0.562,-1.806 -1.686,-1.806 H -10.83 V 13.656 c 0,-1.498 0.068,-2.928 0.187,-4.257 0.12,-1.328 0.358,-2.486 0.733,-3.49 0.374,-1.005 0.919,-1.805 1.617,-2.401 0.698,-0.596 1.635,-0.903 2.827,-0.903 h 1.175 c 1.021,0 1.822,-0.05 2.384,-0.169 0.561,-0.12 0.987,-0.29 1.276,-0.511 0.29,-0.222 0.46,-0.511 0.528,-0.869 C -0.034,0.698 0,0.29 0,-0.153 Z" /></g><g
           transform="translate(567.6357,184.2432)"
           id="g40"
           style="stroke-width:1.04517"><path
             id="path42"
             style="fill:#183669;fill-opacity:1;fill-rule:nonzero;stroke:none;stroke-width:1.04517"
             d="m 0,0 -0.153,3.882 c -1.363,-2.35 -2.997,-4.461 -4.921,-6.352 -1.924,-1.889 -4.053,-3.508 -6.386,-4.835 -2.332,-1.329 -4.836,-2.35 -7.492,-3.065 -2.656,-0.716 -5.414,-1.072 -8.276,-1.072 -3.064,0 -6.01,0.408 -8.854,1.209 -2.843,0.799 -5.517,1.94 -8.003,3.421 -2.486,1.482 -4.75,3.236 -6.811,5.28 -2.06,2.043 -3.832,4.307 -5.295,6.793 -1.464,2.486 -2.588,5.16 -3.389,8.003 -0.8,2.844 -1.209,5.79 -1.209,8.855 0,3.065 0.409,6.027 1.209,8.871 0.801,2.844 1.941,5.5 3.423,7.987 1.481,2.485 3.235,4.75 5.278,6.794 2.044,2.042 4.308,3.813 6.794,5.294 2.486,1.482 5.16,2.623 8.003,3.423 2.844,0.801 5.79,1.192 8.854,1.192 2.793,0 5.535,-0.358 8.207,-1.073 2.674,-0.714 5.177,-1.736 7.527,-3.082 2.35,-1.344 4.513,-2.979 6.471,-4.886 1.958,-1.908 3.627,-4.035 5.023,-6.386 v 3.78 8.786 c 0,1.09 0.528,1.635 1.601,1.635 h 2.672 c 1.176,0 1.754,-0.545 1.754,-1.635 V -8.582 C 6.027,-9.161 5.84,-9.569 5.466,-9.825 5.091,-10.081 4.632,-10.217 4.12,-10.217 H 2.009 C 0.664,-10.217 0,-9.604 0,-8.378 Z m 0.307,22.119 c 0,3.712 -0.749,7.236 -2.248,10.573 -1.498,3.355 -3.508,6.301 -6.028,8.821 -2.503,2.538 -5.432,4.547 -8.769,6.045 -3.338,1.499 -6.845,2.264 -10.506,2.298 h -0.153 c -3.645,0 -7.118,-0.749 -10.387,-2.247 -3.287,-1.499 -6.182,-3.507 -8.651,-6.045 -2.486,-2.52 -4.461,-5.465 -5.925,-8.786 -1.464,-3.338 -2.197,-6.845 -2.197,-10.557 0,-3.712 0.699,-7.254 2.112,-10.625 1.413,-3.389 3.354,-6.368 5.806,-8.923 2.435,-2.571 5.313,-4.614 8.599,-6.13 3.269,-1.516 6.794,-2.265 10.54,-2.265 3.764,0 7.356,0.733 10.728,2.214 3.388,1.482 6.351,3.49 8.854,6.028 2.521,2.52 4.529,5.483 6.011,8.837 1.481,3.372 2.214,6.948 2.214,10.762" /></g><g
           transform="translate(588.9375,256.6279)"
           id="g44"
           style="stroke-width:1.04517"><path
             id="path46"
             style="fill:#183669;fill-opacity:1;fill-rule:nonzero;stroke:none;stroke-width:1.04517"
             d="m 0,0 c 0,1.056 0.545,1.583 1.617,1.583 h 2.64 C 5.363,1.583 5.926,1.056 5.926,0 v -81.019 c 0,-1.055 -0.545,-1.583 -1.618,-1.583 H 1.668 C 0.562,-82.602 0,-82.074 0,-81.019 Z" /></g><g
           transform="translate(610.1367,257.4443)"
           id="g48"
           style="stroke-width:1.04517"><path
             id="path50"
             style="fill:#183669;fill-opacity:1;fill-rule:nonzero;stroke:none;stroke-width:1.04517"
             d="M 0,0 C 0,0.647 0.102,1.176 0.289,1.584 0.477,1.993 0.852,2.231 1.431,2.3 h 0.97 2.758 C 5.807,2.231 6.215,1.993 6.386,1.567 6.556,1.142 6.641,0.613 6.641,0 V -1.94 C 6.641,-2.929 6.487,-3.559 6.164,-3.831 5.841,-4.104 5.21,-4.239 4.291,-4.239 H 2.452 c -0.886,0 -1.515,0.119 -1.89,0.357 C 0.187,-3.644 0,-3.218 0,-2.604 Z m 0.307,-20.483 c 0,1.089 0.545,1.633 1.617,1.633 h 2.69 c 1.073,0 1.618,-0.544 1.618,-1.633 v -61.3 c 0,-1.09 -0.528,-1.635 -1.566,-1.635 h -2.64 c -1.14,0 -1.719,0.545 -1.719,1.635 z" /></g><g
           transform="translate(692.8906,184.2432)"
           id="g52"
           style="stroke-width:1.04517"><path
             id="path54"
             style="fill:#183669;fill-opacity:1;fill-rule:nonzero;stroke:none;stroke-width:1.04517"
             d="m 0,0 -0.152,3.882 c -1.363,-2.35 -2.997,-4.461 -4.921,-6.352 -1.925,-1.889 -4.053,-3.508 -6.386,-4.835 -2.333,-1.329 -4.836,-2.35 -7.492,-3.065 -2.656,-0.716 -5.415,-1.072 -8.276,-1.072 -3.065,0 -6.01,0.408 -8.854,1.209 -2.844,0.799 -5.517,1.94 -8.003,3.421 -2.486,1.482 -4.751,3.236 -6.811,5.28 -2.06,2.043 -3.832,4.307 -5.295,6.793 -1.465,2.486 -2.589,5.16 -3.389,8.003 -0.8,2.844 -1.209,5.79 -1.209,8.855 0,3.065 0.409,6.027 1.209,8.871 0.8,2.844 1.941,5.5 3.423,7.987 1.481,2.485 3.234,4.75 5.278,6.794 2.043,2.042 4.308,3.813 6.794,5.294 2.486,1.482 5.159,2.623 8.003,3.423 2.844,0.801 5.789,1.192 8.854,1.192 2.792,0 5.535,-0.358 8.207,-1.073 2.674,-0.714 5.177,-1.736 7.527,-3.082 2.349,-1.344 4.513,-2.979 6.471,-4.886 1.958,-1.908 3.626,-4.035 5.022,-6.386 v 3.78 8.786 c 0,1.09 0.528,1.635 1.602,1.635 h 2.672 c 1.175,0 1.754,-0.545 1.754,-1.635 V -8.582 c 0,-0.579 -0.187,-0.987 -0.561,-1.243 -0.375,-0.256 -0.835,-0.392 -1.346,-0.392 H 2.01 C 0.665,-10.217 0,-9.604 0,-8.378 Z m 0.308,22.119 c 0,3.712 -0.749,7.236 -2.248,10.573 -1.499,3.355 -3.508,6.301 -6.028,8.821 -2.504,2.538 -5.432,4.547 -8.769,6.045 -3.338,1.499 -6.846,2.264 -10.506,2.298 h -0.153 c -3.645,0 -7.119,-0.749 -10.388,-2.247 -3.286,-1.499 -6.181,-3.507 -8.65,-6.045 -2.486,-2.52 -4.461,-5.465 -5.925,-8.786 -1.465,-3.338 -2.197,-6.845 -2.197,-10.557 0,-3.712 0.699,-7.254 2.112,-10.625 1.413,-3.389 3.354,-6.368 5.805,-8.923 2.436,-2.571 5.314,-4.614 8.6,-6.13 3.269,-1.516 6.794,-2.265 10.54,-2.265 3.763,0 7.356,0.733 10.728,2.214 3.388,1.482 6.351,3.49 8.854,6.028 2.52,2.52 4.529,5.483 6.011,8.837 1.481,3.372 2.214,6.948 2.214,10.762" /></g><g
           transform="translate(432.9375,427.6348)"
           id="g56"
           style="stroke-width:1.04517"><path
             id="path58"
             style="fill:#235295;fill-opacity:1;fill-rule:nonzero;stroke:none;stroke-width:1.04517"
             d="m 0,0 c -11.084,5.204 -23.68,9.658 -36.059,7.434 -28.573,-5.135 -41.398,-40.842 -23.078,-63.176 7.247,-8.835 11.347,-19.827 11.347,-31.254 0,-10.686 3.938,-20.998 11.062,-28.962 l 4.407,-4.928 c 4.155,-4.645 11.85,-1.706 11.85,4.527 v 32.26 c 0,2.733 0.881,5.255 2.362,7.319 -8.678,-5.131 -5.628,-39.375 -13.059,-30.231 -3.772,4.642 -3.403,10.448 -3.914,16.062 -0.822,9.025 -2.335,18.077 -5.057,26.737 -5.459,17.373 -14.848,37.861 1.131,52.861 12.807,12.022 31.175,6.138 46.487,4.337 3.912,-0.46 8.989,-1.04 12.814,-1.475 C 14.074,-6.311 7.13,-3.347 0,0" /></g><g
           transform="translate(453.9678,434.9219)"
           id="g60"
           style="stroke-width:1.04517"><path
             id="path62"
             style="fill:#62e2f4;fill-opacity:1;fill-rule:nonzero;stroke:none;stroke-width:1.04517"
             d="m 0,0 c -7.437,1.481 -14.572,0.817 -20.949,-1.455 2.147,0.766 6.133,-0.32 8.252,-0.695 6.152,-1.087 12.162,-3.361 17.24,-7.043 9.673,-7.014 14.741,-18.864 14.385,-30.669 -0.258,-8.562 -3.885,-16.244 -8.123,-23.511 -4.653,-7.977 -8.058,-14.134 -8.261,-23.648 -0.104,-4.856 0.357,-9.778 -0.441,-14.599 -0.519,-3.124 -2.037,-8.15 -4.557,-10.272 -0.827,-0.696 -2.134,-0.95 -2.981,-0.277 -0.392,0.312 -0.633,0.772 -0.842,1.226 -2.59,5.619 -1.589,12.056 -3.406,17.876 -2.823,9.053 -9.665,14.252 -19.248,14.252 6.943,0 12.571,-5.628 12.571,-12.571 v -32.26 c 0,-6.233 7.694,-9.172 11.849,-4.526 l 4.407,4.926 c 7.125,7.965 11.063,18.277 11.063,28.963 0,11.144 3.568,22.156 10.815,30.621 7.141,8.341 10.829,19.724 8.838,31.943 C 28.047,-15.966 15.653,-3.116 0,0" /></g><g
           transform="translate(401.7695,320.6235)"
           id="g64"
           style="stroke-width:1.04517"><path
             id="path66"
             style="fill:#183669;fill-opacity:1;fill-rule:nonzero;stroke:none;stroke-width:1.04517"
             d="m 0,0 c -3.772,4.642 -3.403,10.448 -3.914,16.062 -0.822,9.025 -2.336,18.078 -5.057,26.737 -5.459,17.373 -14.848,37.861 1.131,52.862 12.807,12.022 31.175,6.137 46.487,4.337 3.912,-0.46 8.989,-1.04 12.813,-1.476 0,0 -42.343,13.486 -60.035,7.106 C -26.266,99.247 -30.037,77.785 -23.946,62.56 -17.855,47.333 -10.866,32.664 -9.88,13.98 -8.894,-4.705 3.461,-13.863 5.491,-4.872 7.521,4.119 7.575,24.729 13.059,30.231 4.381,25.101 7.431,-9.144 0,0" /></g><g
           transform="translate(465.4111,426.5415)"
           id="g68"
           style="stroke-width:1.04517"><path
             id="path70"
             style="fill:#2dbcdb;fill-opacity:1;fill-rule:nonzero;stroke:none;stroke-width:1.04517"
             d="M 0,0 C -8.95,7.272 -23.362,7.445 -29.484,7.145 -27.583,6.99 -25.486,6.468 -24.141,6.23 -17.988,5.143 -11.979,2.87 -6.9,-0.813 2.772,-7.826 7.841,-19.677 7.484,-31.482 7.227,-40.043 3.599,-47.726 -0.639,-54.993 c -4.652,-7.976 -8.057,-14.133 -8.26,-23.647 -0.104,-4.857 0.357,-9.778 -0.442,-14.599 -0.518,-3.124 -2.036,-8.15 -4.555,-10.272 -0.829,-0.697 -2.136,-0.951 -2.982,-0.278 -0.393,0.312 -0.634,0.772 -0.844,1.226 -2.589,5.619 -1.588,12.056 -3.404,17.876 -2.539,8.141 -8.334,13.15 -16.442,14.081 20.525,-2.832 11.341,-40.764 18.572,-40.764 5.252,0 15.679,10.039 14.211,24.942 -1.468,14.904 10.731,34.223 16.531,47.854 C 17.547,-24.942 11.601,-9.426 0,0" /></g></g></g></g></svg>
